<?xml version="1.0" ?><!DOCTYPE svg  PUBLIC '-//W3C//DTD SVG 1.1//EN'  'http://www.w3.org/Graphics/SVG/1.1/DTD/svg11.dtd'><svg enable-background="new 0 0 512 512" id="Layer_1" version="1.1" viewBox="0 0 512 512" xml:space="preserve" xmlns="http://www.w3.org/2000/svg" xmlns:xlink="http://www.w3.org/1999/xlink"><g><path d="M256.5,509c-74,0-148,0-221.9,0C15,509,3,497.1,3,477.7C3,330.6,3,183.4,3,36.3C3,17.1,15,5,34.1,5C182.7,5,331.4,5,480,5   c19,0,31,12.1,31,31.3c0,147.1,0,294.3,0,441.4c0,19.4-12,31.3-31.6,31.3C405.1,509,330.8,509,256.5,509z M257,495   c74,0,148,0,222,0c12.3,0,18-5.7,18-18c0-146.7,0-293.3,0-440c0-12.3-5.7-18-18-18c-148,0-296,0-444,0c-12.3,0-18,5.7-18,18   c0,146.7,0,293.3,0,440c0,12.3,5.7,18,18,18C109,495,183,495,257,495z"/><path d="M137.3,436.9c0-51.8,0-103.3,0-154.9c8.3,0,16.4,0,25.1,0c0,43.3,0,86.4,0,129.8c65.5,0,130.4,0,195.9,0   c0-43.1,0-86.1,0-129.6c8.8,0,17,0,25.5,0c0,51.5,0,103,0,154.8C301.7,436.9,219.7,436.9,137.3,436.9z"/><path d="M434.1,205.9c-10.5,1.8-20.6,3.5-31.4,5.4c-8.5-49-17-97.7-25.6-147c10.5-1.9,20.7-3.8,31.4-5.7   C417.1,107.8,425.6,156.6,434.1,205.9z"/><path d="M286.3,107.7c8.9-6,17.4-11.8,26.4-17.9c27.9,40.9,55.8,81.8,84.1,123.4c-8.9,6.1-17.5,11.9-26.4,17.9   C342.4,190,314.6,149.2,286.3,107.7z"/><path d="M220.4,187.2c5.6-9.4,10.8-18.2,16.3-27.5c42.9,25.3,85.6,50.5,128.6,75.9c-5.5,9.4-10.8,18.4-16.2,27.5   C306.1,237.7,263.6,212.6,220.4,187.2z"/><path d="M336.8,313.8c-1,10-2,19.1-2.7,28.2c-0.3,3.5-2.2,3.4-4.7,3.1c-18.7-1.8-37.4-3.4-56.2-5.1c-27.7-2.6-55.3-5.2-83-7.7   c-1.5-0.1-2.9-0.3-5.1-0.6c1-10.5,1.9-20.8,2.9-31.7C237.7,304.6,287,309.2,336.8,313.8z"/><path d="M193.9,264.1c2.9-10.4,5.6-20.3,8.5-30.8c48.1,12.9,95.7,25.7,144.1,38.7c-2.7,10.3-5.3,20.3-8.1,30.9   C290.1,290,242.3,277.1,193.9,264.1z"/><path d="M183.9,386.3c0-9.7-0.1-19.2,0.1-28.6c0-1,1.8-2.1,2.9-2.9c0.6-0.4,1.6-0.1,2.5-0.1c46,0,91.9-0.1,137.9-0.1   c1.6,0,3.3,0,5.3,0c0,10.7,0,20.9,0,31.7C283.4,386.3,234,386.3,183.9,386.3z"/></g></svg>